<?xml version="1.0" encoding="utf-8" standalone="no"?>
<!DOCTYPE svg PUBLIC "-//W3C//DTD SVG 1.1//EN"
  "http://www.w3.org/Graphics/SVG/1.1/DTD/svg11.dtd">
<svg xmlns:xlink="http://www.w3.org/1999/xlink" width="619.176833pt" height="322.760999pt" viewBox="0 0 619.176833 322.760999" xmlns="http://www.w3.org/2000/svg" version="1.1">
 <metadata>
  <rdf:RDF xmlns:dc="http://purl.org/dc/elements/1.1/" xmlns:cc="http://creativecommons.org/ns#" xmlns:rdf="http://www.w3.org/1999/02/22-rdf-syntax-ns#">
   <cc:Work>
    <dc:type rdf:resource="http://purl.org/dc/dcmitype/StillImage"/>
    <dc:date>2022-08-06T11:23:28.316091</dc:date>
    <dc:format>image/svg+xml</dc:format>
    <dc:creator>
     <cc:Agent>
      <dc:title>Matplotlib v3.5.1, https://matplotlib.org/</dc:title>
     </cc:Agent>
    </dc:creator>
   </cc:Work>
  </rdf:RDF>
 </metadata>
 <defs>
  <style type="text/css">*{stroke-linejoin: round; stroke-linecap: butt}</style>
 </defs>
 <g id="figure_1">
  <g id="patch_1">
   <path d="M 0 322.760999 
L 619.176833 322.760999 
L 619.176833 0 
L 0 0 
z
" style="fill: #ffffff"/>
  </g>
  <g id="axes_1">
   <g id="patch_2">
    <path d="M 41.11902 232.124749 
L 294.755384 232.124749 
L 294.755384 10.364749 
L 41.11902 10.364749 
z
" style="fill: #f7fbfb"/>
   </g>
   <g id="matplotlib.axis_1">
    <g id="xtick_1">
     <g id="line2d_1">
      <path d="M 41.11902 232.124749 
L 41.11902 10.364749 
" clip-path="url(#p1742c62fbf)" style="fill: none; stroke: #eef2f3; stroke-width: 0.7; stroke-linecap: square"/>
     </g>
     <g id="line2d_2">
      <defs>
       <path id="mad092715ac" d="M 0 0 
L 0 3.5 
" style="stroke: #c8c8d3; stroke-width: 0.8"/>
      </defs>
      <g>
       <use xlink:href="#mad092715ac" x="41.11902" y="232.124749" style="fill: #c8c8d3; stroke: #c8c8d3; stroke-width: 0.8"/>
      </g>
     </g>
     <g id="text_1">
      <!-- -6 -->
      <g style="fill: #6e6e80" transform="translate(36.966385 245.454248)scale(0.0833 -0.0833)">
       <defs>
        <path id="DejaVuSans-2d" d="M 313 2009 
L 1997 2009 
L 1997 1497 
L 313 1497 
L 313 2009 
z
" transform="scale(0.015625)"/>
        <path id="DejaVuSans-36" d="M 2113 2584 
Q 1688 2584 1439 2293 
Q 1191 2003 1191 1497 
Q 1191 994 1439 701 
Q 1688 409 2113 409 
Q 2538 409 2786 701 
Q 3034 994 3034 1497 
Q 3034 2003 2786 2293 
Q 2538 2584 2113 2584 
z
M 3366 4563 
L 3366 3988 
Q 3128 4100 2886 4159 
Q 2644 4219 2406 4219 
Q 1781 4219 1451 3797 
Q 1122 3375 1075 2522 
Q 1259 2794 1537 2939 
Q 1816 3084 2150 3084 
Q 2853 3084 3261 2657 
Q 3669 2231 3669 1497 
Q 3669 778 3244 343 
Q 2819 -91 2113 -91 
Q 1303 -91 875 529 
Q 447 1150 447 2328 
Q 447 3434 972 4092 
Q 1497 4750 2381 4750 
Q 2619 4750 2861 4703 
Q 3103 4656 3366 4563 
z
" transform="scale(0.015625)"/>
       </defs>
       <use xlink:href="#DejaVuSans-2d"/>
       <use xlink:href="#DejaVuSans-36" x="36.083984"/>
      </g>
     </g>
    </g>
    <g id="xtick_2">
     <g id="line2d_3">
      <path d="M 104.528111 232.124749 
L 104.528111 10.364749 
" clip-path="url(#p1742c62fbf)" style="fill: none; stroke: #eef2f3; stroke-width: 0.7; stroke-linecap: square"/>
     </g>
     <g id="line2d_4">
      <g>
       <use xlink:href="#mad092715ac" x="104.528111" y="232.124749" style="fill: #c8c8d3; stroke: #c8c8d3; stroke-width: 0.8"/>
      </g>
     </g>
     <g id="text_2">
      <!-- -3 -->
      <g style="fill: #6e6e80" transform="translate(100.375476 245.454248)scale(0.0833 -0.0833)">
       <defs>
        <path id="DejaVuSans-33" d="M 2597 2516 
Q 3050 2419 3304 2112 
Q 3559 1806 3559 1356 
Q 3559 666 3084 287 
Q 2609 -91 1734 -91 
Q 1441 -91 1130 -33 
Q 819 25 488 141 
L 488 750 
Q 750 597 1062 519 
Q 1375 441 1716 441 
Q 2309 441 2620 675 
Q 2931 909 2931 1356 
Q 2931 1769 2642 2001 
Q 2353 2234 1838 2234 
L 1294 2234 
L 1294 2753 
L 1863 2753 
Q 2328 2753 2575 2939 
Q 2822 3125 2822 3475 
Q 2822 3834 2567 4026 
Q 2313 4219 1838 4219 
Q 1578 4219 1281 4162 
Q 984 4106 628 3988 
L 628 4550 
Q 988 4650 1302 4700 
Q 1616 4750 1894 4750 
Q 2613 4750 3031 4423 
Q 3450 4097 3450 3541 
Q 3450 3153 3228 2886 
Q 3006 2619 2597 2516 
z
" transform="scale(0.015625)"/>
       </defs>
       <use xlink:href="#DejaVuSans-2d"/>
       <use xlink:href="#DejaVuSans-33" x="36.083984"/>
      </g>
     </g>
    </g>
    <g id="xtick_3">
     <g id="line2d_5">
      <path d="M 167.937202 232.124749 
L 167.937202 10.364749 
" clip-path="url(#p1742c62fbf)" style="fill: none; stroke: #eef2f3; stroke-width: 0.7; stroke-linecap: square"/>
     </g>
     <g id="line2d_6">
      <g>
       <use xlink:href="#mad092715ac" x="167.937202" y="232.124749" style="fill: #c8c8d3; stroke: #c8c8d3; stroke-width: 0.8"/>
      </g>
     </g>
     <g id="text_3">
      <!-- 0 -->
      <g style="fill: #6e6e80" transform="translate(165.287221 245.454248)scale(0.0833 -0.0833)">
       <defs>
        <path id="DejaVuSans-30" d="M 2034 4250 
Q 1547 4250 1301 3770 
Q 1056 3291 1056 2328 
Q 1056 1369 1301 889 
Q 1547 409 2034 409 
Q 2525 409 2770 889 
Q 3016 1369 3016 2328 
Q 3016 3291 2770 3770 
Q 2525 4250 2034 4250 
z
M 2034 4750 
Q 2819 4750 3233 4129 
Q 3647 3509 3647 2328 
Q 3647 1150 3233 529 
Q 2819 -91 2034 -91 
Q 1250 -91 836 529 
Q 422 1150 422 2328 
Q 422 3509 836 4129 
Q 1250 4750 2034 4750 
z
" transform="scale(0.015625)"/>
       </defs>
       <use xlink:href="#DejaVuSans-30"/>
      </g>
     </g>
    </g>
    <g id="xtick_4">
     <g id="line2d_7">
      <path d="M 231.346293 232.124749 
L 231.346293 10.364749 
" clip-path="url(#p1742c62fbf)" style="fill: none; stroke: #eef2f3; stroke-width: 0.7; stroke-linecap: square"/>
     </g>
     <g id="line2d_8">
      <g>
       <use xlink:href="#mad092715ac" x="231.346293" y="232.124749" style="fill: #c8c8d3; stroke: #c8c8d3; stroke-width: 0.8"/>
      </g>
     </g>
     <g id="text_4">
      <!-- 3 -->
      <g style="fill: #6e6e80" transform="translate(228.696312 245.454248)scale(0.0833 -0.0833)">
       <use xlink:href="#DejaVuSans-33"/>
      </g>
     </g>
    </g>
    <g id="xtick_5">
     <g id="line2d_9">
      <path d="M 294.755384 232.124749 
L 294.755384 10.364749 
" clip-path="url(#p1742c62fbf)" style="fill: none; stroke: #eef2f3; stroke-width: 0.7; stroke-linecap: square"/>
     </g>
     <g id="line2d_10">
      <g>
       <use xlink:href="#mad092715ac" x="294.755384" y="232.124749" style="fill: #c8c8d3; stroke: #c8c8d3; stroke-width: 0.8"/>
      </g>
     </g>
     <g id="text_5">
      <!-- 6 -->
      <g style="fill: #6e6e80" transform="translate(292.105403 245.454248)scale(0.0833 -0.0833)">
       <use xlink:href="#DejaVuSans-36"/>
      </g>
     </g>
    </g>
    <g id="text_6">
     <!-- x -->
     <g style="fill: #6e6e80" transform="translate(164.385952 263.304752)scale(0.12 -0.12)">
      <defs>
       <path id="DejaVuSans-78" d="M 3513 3500 
L 2247 1797 
L 3578 0 
L 2900 0 
L 1881 1375 
L 863 0 
L 184 0 
L 1544 1831 
L 300 3500 
L 978 3500 
L 1906 2253 
L 2834 3500 
L 3513 3500 
z
" transform="scale(0.015625)"/>
      </defs>
      <use xlink:href="#DejaVuSans-78"/>
     </g>
    </g>
   </g>
   <g id="matplotlib.axis_2">
    <g id="ytick_1">
     <g id="line2d_11">
      <path d="M 41.11902 232.124749 
L 294.755384 232.124749 
" clip-path="url(#p1742c62fbf)" style="fill: none; stroke: #eef2f3; stroke-width: 0.7; stroke-linecap: square"/>
     </g>
     <g id="line2d_12">
      <defs>
       <path id="m3f85ce68c1" d="M 0 0 
L -3.5 0 
" style="stroke: #c8c8d3; stroke-width: 0.8"/>
      </defs>
      <g>
       <use xlink:href="#m3f85ce68c1" x="41.11902" y="232.124749" style="fill: #c8c8d3; stroke: #c8c8d3; stroke-width: 0.8"/>
      </g>
     </g>
     <g id="text_7">
      <!-- -4 -->
      <g style="fill: #6e6e80" transform="translate(25.81375 235.289498)scale(0.0833 -0.0833)">
       <defs>
        <path id="DejaVuSans-34" d="M 2419 4116 
L 825 1625 
L 2419 1625 
L 2419 4116 
z
M 2253 4666 
L 3047 4666 
L 3047 1625 
L 3713 1625 
L 3713 1100 
L 3047 1100 
L 3047 0 
L 2419 0 
L 2419 1100 
L 313 1100 
L 313 1709 
L 2253 4666 
z
" transform="scale(0.015625)"/>
       </defs>
       <use xlink:href="#DejaVuSans-2d"/>
       <use xlink:href="#DejaVuSans-34" x="36.083984"/>
      </g>
     </g>
    </g>
    <g id="ytick_2">
     <g id="line2d_13">
      <path d="M 41.11902 176.684749 
L 294.755384 176.684749 
" clip-path="url(#p1742c62fbf)" style="fill: none; stroke: #eef2f3; stroke-width: 0.7; stroke-linecap: square"/>
     </g>
     <g id="line2d_14">
      <g>
       <use xlink:href="#m3f85ce68c1" x="41.11902" y="176.684749" style="fill: #c8c8d3; stroke: #c8c8d3; stroke-width: 0.8"/>
      </g>
     </g>
     <g id="text_8">
      <!-- -2 -->
      <g style="fill: #6e6e80" transform="translate(25.81375 179.849498)scale(0.0833 -0.0833)">
       <defs>
        <path id="DejaVuSans-32" d="M 1228 531 
L 3431 531 
L 3431 0 
L 469 0 
L 469 531 
Q 828 903 1448 1529 
Q 2069 2156 2228 2338 
Q 2531 2678 2651 2914 
Q 2772 3150 2772 3378 
Q 2772 3750 2511 3984 
Q 2250 4219 1831 4219 
Q 1534 4219 1204 4116 
Q 875 4013 500 3803 
L 500 4441 
Q 881 4594 1212 4672 
Q 1544 4750 1819 4750 
Q 2544 4750 2975 4387 
Q 3406 4025 3406 3419 
Q 3406 3131 3298 2873 
Q 3191 2616 2906 2266 
Q 2828 2175 2409 1742 
Q 1991 1309 1228 531 
z
" transform="scale(0.015625)"/>
       </defs>
       <use xlink:href="#DejaVuSans-2d"/>
       <use xlink:href="#DejaVuSans-32" x="36.083984"/>
      </g>
     </g>
    </g>
    <g id="ytick_3">
     <g id="line2d_15">
      <path d="M 41.11902 121.244749 
L 294.755384 121.244749 
" clip-path="url(#p1742c62fbf)" style="fill: none; stroke: #eef2f3; stroke-width: 0.7; stroke-linecap: square"/>
     </g>
     <g id="line2d_16">
      <g>
       <use xlink:href="#m3f85ce68c1" x="41.11902" y="121.244749" style="fill: #c8c8d3; stroke: #c8c8d3; stroke-width: 0.8"/>
      </g>
     </g>
     <g id="text_9">
      <!-- 0 -->
      <g style="fill: #6e6e80" transform="translate(28.819058 124.409498)scale(0.0833 -0.0833)">
       <use xlink:href="#DejaVuSans-30"/>
      </g>
     </g>
    </g>
    <g id="ytick_4">
     <g id="line2d_17">
      <path d="M 41.11902 65.804749 
L 294.755384 65.804749 
" clip-path="url(#p1742c62fbf)" style="fill: none; stroke: #eef2f3; stroke-width: 0.7; stroke-linecap: square"/>
     </g>
     <g id="line2d_18">
      <g>
       <use xlink:href="#m3f85ce68c1" x="41.11902" y="65.804749" style="fill: #c8c8d3; stroke: #c8c8d3; stroke-width: 0.8"/>
      </g>
     </g>
     <g id="text_10">
      <!-- 2 -->
      <g style="fill: #6e6e80" transform="translate(28.819058 68.969498)scale(0.0833 -0.0833)">
       <use xlink:href="#DejaVuSans-32"/>
      </g>
     </g>
    </g>
    <g id="ytick_5">
     <g id="line2d_19">
      <path d="M 41.11902 10.364749 
L 294.755384 10.364749 
" clip-path="url(#p1742c62fbf)" style="fill: none; stroke: #eef2f3; stroke-width: 0.7; stroke-linecap: square"/>
     </g>
     <g id="line2d_20">
      <g>
       <use xlink:href="#m3f85ce68c1" x="41.11902" y="10.364749" style="fill: #c8c8d3; stroke: #c8c8d3; stroke-width: 0.8"/>
      </g>
     </g>
     <g id="text_11">
      <!-- 4 -->
      <g style="fill: #6e6e80" transform="translate(28.819058 13.529498)scale(0.0833 -0.0833)">
       <use xlink:href="#DejaVuSans-34"/>
      </g>
     </g>
    </g>
    <g id="text_12">
     <!-- y -->
     <g style="fill: #6e6e80" transform="translate(16.318125 124.795999)rotate(-90)scale(0.12 -0.12)">
      <defs>
       <path id="DejaVuSans-79" d="M 2059 -325 
Q 1816 -950 1584 -1140 
Q 1353 -1331 966 -1331 
L 506 -1331 
L 506 -850 
L 844 -850 
Q 1081 -850 1212 -737 
Q 1344 -625 1503 -206 
L 1606 56 
L 191 3500 
L 800 3500 
L 1894 763 
L 2988 3500 
L 3597 3500 
L 2059 -325 
z
" transform="scale(0.015625)"/>
      </defs>
      <use xlink:href="#DejaVuSans-79"/>
     </g>
    </g>
   </g>
   <g id="PathCollection_1">
    <defs>
     <path id="m347880bafe" d="M 0 3 
C 0.795609 3 1.55874 2.683901 2.12132 2.12132 
C 2.683901 1.55874 3 0.795609 3 0 
C 3 -0.795609 2.683901 -1.55874 2.12132 -2.12132 
C 1.55874 -2.683901 0.795609 -3 0 -3 
C -0.795609 -3 -1.55874 -2.683901 -2.12132 -2.12132 
C -2.683901 -1.55874 -3 -0.795609 -3 0 
C -3 0.795609 -2.683901 1.55874 -2.12132 2.12132 
C -1.55874 2.683901 -0.795609 3 0 3 
z
" style="stroke: #6e6e80; stroke-width: 0.5"/>
    </defs>
    <g clip-path="url(#p1742c62fbf)">
     <use xlink:href="#m347880bafe" x="272.085238" y="64.273076" style="fill: #6e6e80; stroke: #6e6e80; stroke-width: 0.5"/>
     <use xlink:href="#m347880bafe" x="261.490943" y="79.322378" style="fill: #6e6e80; stroke: #6e6e80; stroke-width: 0.5"/>
     <use xlink:href="#m347880bafe" x="190.607179" y="153.377855" style="fill: #6e6e80; stroke: #6e6e80; stroke-width: 0.5"/>
     <use xlink:href="#m347880bafe" x="262.957672" y="76.507522" style="fill: #6e6e80; stroke: #6e6e80; stroke-width: 0.5"/>
     <use xlink:href="#m347880bafe" x="237.275772" y="142.262606" style="fill: #6e6e80; stroke: #6e6e80; stroke-width: 0.5"/>
    </g>
   </g>
   <g id="line2d_21">
    <path d="M 62.255384 111.962375 
L 65.852165 119.327017 
L 69.872087 126.104072 
L 72.199418 132.460424 
L 72.834148 134.069525 
L 74.738319 137.292891 
L 77.70037 142.256796 
L 79.816131 145.267041 
L 85.528658 153.36581 
L 89.125435 159.215723 
L 90.606461 160.455833 
L 91.875916 162.666048 
L 98.434744 172.831846 
L 98.646319 172.987411 
L 103.089401 168.910223 
L 106.051452 167.911275 
L 110.494534 166.324129 
L 111.763984 165.668064 
L 112.187134 165.387774 
L 112.398709 165.057601 
L 113.24501 162.57152 
L 116.418636 154.286491 
L 120.438568 146.83057 
L 122.342743 143.60207 
L 125.939522 139.099563 
L 127.208973 135.962325 
L 131.652052 127.102316 
L 133.767806 120.480112 
L 138.84561 109.413169 
L 139.691911 108.385353 
L 140.326636 108.111289 
L 140.749789 107.520791 
L 143.28869 103.179912 
L 147.943345 92.337611 
L 148.789646 91.314715 
L 154.713752 84.424422 
L 156.406354 82.382695 
L 157.252654 81.640614 
L 160.214707 82.152346 
L 160.637857 82.403679 
L 161.484158 80.546586 
L 163.388335 76.206143 
L 168.04299 75.112168 
L 171.428193 74.496054 
L 174.601821 72.194205 
L 177.987025 71.855509 
L 179.891202 75.556707 
L 187.296334 89.844803 
L 188.988936 92.483497 
L 189.835236 93.643846 
L 190.681536 96.342603 
L 195.970919 112.021432 
L 197.451944 117.602596 
L 200.837148 121.928641 
L 201.260298 122.425794 
L 202.741324 123.890539 
L 202.952899 124.103109 
L 204.222352 126.713788 
L 207.819128 134.281279 
L 214.166386 141.360863 
L 218.186313 150.351211 
L 222.206244 156.860266 
L 227.707202 166.192178 
L 229.399802 167.214627 
L 240.613287 172.368587 
L 241.459587 172.068151 
L 245.479519 169.048905 
L 247.17212 166.867492 
L 251.192046 157.386336 
L 256.481423 144.816125 
L 258.597184 141.239835 
L 260.289785 138.145821 
L 263.463406 131.711969 
L 266.425467 123.978375 
L 271.080119 112.157237 
L 273.61902 106.677213 
L 273.61902 106.677213 
" clip-path="url(#p1742c62fbf)" style="fill: none; stroke-dasharray: 1.5,2.475; stroke-dashoffset: 0; stroke: #89cff0; stroke-width: 1.5"/>
   </g>
   <g id="line2d_22">
    <path d="M 62.255384 186.202317 
L 66.486886 189.139314 
L 70.295237 192.134271 
L 85.317083 190.212874 
L 85.951809 189.046907 
L 90.818036 179.13068 
L 98.646319 161.084246 
L 100.5505 156.842273 
L 101.81995 154.007388 
L 103.300976 146.242094 
L 110.071384 121.055214 
L 113.66816 107.328447 
L 114.93761 102.830404 
L 116.418636 95.230876 
L 119.169117 85.654852 
L 120.226993 83.574575 
L 121.919593 80.761365 
L 124.670069 76.291696 
L 126.785823 69.822791 
L 127.208973 68.976903 
L 133.767806 58.419127 
L 136.518284 53.081663 
L 138.42246 49.995528 
L 139.691911 48.795089 
L 143.500265 51.775626 
L 148.15492 59.22098 
L 149.847521 62.486931 
L 157.252654 71.167252 
L 157.675804 72.041115 
L 158.098955 73.229698 
L 163.388335 93.594451 
L 175.024972 144.115152 
L 177.563874 153.524385 
L 178.833325 158.006795 
L 181.583803 167.630047 
L 185.392157 177.787204 
L 187.931059 184.599987 
L 189.623661 187.199266 
L 193.432015 192.949672 
L 198.93297 195.934583 
L 201.471873 195.966809 
L 204.010777 195.400817 
L 206.761253 193.157272 
L 211.83906 189.259392 
L 216.705287 179.425737 
L 223.68727 165.272286 
L 231.092403 147.812397 
L 231.515553 146.106574 
L 242.517463 92.456354 
L 246.960544 70.732362 
L 251.615196 51.107222 
L 256.693003 38.60161 
L 261.136085 28.583017 
L 264.732857 20.767825 
L 273.61902 2.802179 
L 273.61902 2.802179 
" clip-path="url(#p1742c62fbf)" style="fill: none; stroke-dasharray: 9.6,2.4,1.5,2.4; stroke-dashoffset: 0; stroke: #52c7f3; stroke-width: 1.5"/>
   </g>
   <g id="line2d_23">
    <path d="M 62.255384 164.117661 
L 67.121616 165.234285 
L 72.834148 167.321233 
L 87.432834 159.202188 
L 87.644409 159.1062 
L 88.067559 158.457725 
L 92.933791 148.902342 
L 97.588443 138.851255 
L 102.877826 128.322489 
L 103.724126 127.216129 
L 113.033435 101.128133 
L 116.207061 95.447743 
L 117.476517 95.031398 
L 119.380692 93.405005 
L 120.015418 93.007396 
L 126.785823 80.919008 
L 127.208973 80.671793 
L 127.632123 80.482347 
L 129.113151 78.417357 
L 132.075205 74.739773 
L 133.556231 73.886847 
L 134.614106 74.301738 
L 137.15301 75.364426 
L 139.691911 72.205619 
L 147.943345 74.299411 
L 149.424371 75.346119 
L 151.540123 76.780317 
L 155.136902 75.868353 
L 157.041079 75.405712 
L 157.675804 75.946946 
L 162.118884 85.681856 
L 163.59991 89.259215 
L 174.178671 119.551549 
L 175.448122 123.913197 
L 177.140724 128.369109 
L 178.410175 131.895561 
L 179.256476 134.30484 
L 181.583803 140.369053 
L 183.911131 147.180299 
L 185.392157 150.839844 
L 187.931059 155.228007 
L 189.623661 156.018152 
L 190.258386 156.533185 
L 198.298245 164.083092 
L 202.318174 168.046375 
L 203.164474 168.48864 
L 208.030704 172.982461 
L 208.665431 172.925716 
L 214.166386 167.250438 
L 216.282137 165.985823 
L 222.84097 155.954884 
L 228.130352 148.050756 
L 229.399802 146.950602 
L 234.054454 141.831481 
L 237.862811 137.708152 
L 240.613287 131.822517 
L 252.249922 106.129506 
L 257.327734 93.686071 
L 262.828686 75.867513 
L 263.886556 74.380616 
L 268.752788 67.97661 
L 273.19587 62.055696 
L 273.61902 61.468899 
L 273.61902 61.468899 
" clip-path="url(#p1742c62fbf)" style="fill: none; stroke-dasharray: 5.55,2.4; stroke-dashoffset: 0; stroke: #3668f0; stroke-width: 1.5"/>
   </g>
   <g id="line2d_24">
    <path d="M 62.255384 163.107332 
L 64.582715 167.481316 
L 66.698466 170.97296 
L 68.602637 173.690658 
L 70.295237 175.749895 
L 71.987848 177.459796 
L 73.468869 178.66071 
L 74.949899 179.579839 
L 76.43092 180.212667 
L 77.70037 180.524834 
L 78.969821 180.623222 
L 80.239281 180.507492 
L 81.508732 180.178049 
L 82.778182 179.636081 
L 84.259208 178.737843 
L 85.740234 177.55743 
L 87.221259 176.100652 
L 88.91386 174.10658 
L 90.606461 171.773695 
L 92.510641 168.762902 
L 94.626392 164.966737 
L 96.953718 160.28697 
L 99.492619 154.644571 
L 102.454675 147.459505 
L 105.839877 138.627331 
L 110.494534 125.804817 
L 119.169117 101.804869 
L 122.765894 92.584062 
L 125.727947 85.601059 
L 128.266851 80.167034 
L 130.594177 75.704136 
L 132.70993 72.124306 
L 134.614106 69.32201 
L 136.306709 67.183987 
L 137.99931 65.392469 
L 139.480335 64.118201 
L 140.961364 63.124306 
L 142.442389 62.415653 
L 143.71184 62.037938 
L 144.981293 61.873731 
L 146.250743 61.923629 
L 147.520194 62.187446 
L 148.789646 62.664223 
L 150.270672 63.487303 
L 151.751698 64.593842 
L 153.232725 65.978416 
L 154.925327 67.892448 
L 156.617929 70.148441 
L 158.522105 73.077087 
L 160.637857 76.788208 
L 162.753609 80.944403 
L 165.292512 86.460472 
L 168.04299 92.999247 
L 171.216618 101.130013 
L 175.448122 112.64196 
L 186.873184 144.102297 
L 190.046811 152.04289 
L 192.79729 158.370202 
L 195.336191 163.65584 
L 197.663519 167.965776 
L 199.779273 171.394112 
L 201.683448 174.051193 
L 203.376049 176.054082 
L 205.068652 177.705675 
L 206.549678 178.854274 
L 208.030704 179.720134 
L 209.300157 180.234007 
L 210.56961 180.535151 
L 211.83906 180.622488 
L 213.108511 180.495709 
L 214.377961 180.155254 
L 215.647412 179.602368 
L 217.128437 178.691528 
L 218.609463 177.498762 
L 220.090493 176.0299 
L 221.783094 174.022457 
L 223.475695 171.676738 
L 225.379871 168.652255 
L 227.495626 164.841934 
L 229.822952 160.14806 
L 232.361853 154.492179 
L 235.323905 147.294159 
L 238.709111 138.451178 
L 243.363763 125.621217 
L 252.038346 101.630988 
L 255.635123 92.422959 
L 258.597184 85.453963 
L 261.136085 80.034276 
L 263.463406 75.586193 
L 265.579167 72.021074 
L 267.483338 69.232924 
L 269.175938 67.108083 
L 270.868539 65.330226 
L 272.34957 64.068244 
L 273.61902 63.2097 
L 273.61902 63.2097 
" clip-path="url(#p1742c62fbf)" style="fill: none; stroke: #6e6e80; stroke-width: 1.5; stroke-linecap: square"/>
   </g>
   <g id="patch_3">
    <path d="M 41.11902 232.124749 
L 41.11902 10.364749 
" style="fill: none; stroke: #c8c8d3; stroke-width: 0.7; stroke-linejoin: miter; stroke-linecap: square"/>
   </g>
   <g id="patch_4">
    <path d="M 294.755384 232.124749 
L 294.755384 10.364749 
" style="fill: none; stroke: #ffffff; stroke-linejoin: miter; stroke-linecap: square"/>
   </g>
   <g id="patch_5">
    <path d="M 41.11902 232.124749 
L 294.755384 232.124749 
" style="fill: none; stroke: #c8c8d3; stroke-width: 0.7; stroke-linejoin: miter; stroke-linecap: square"/>
   </g>
   <g id="patch_6">
    <path d="M 41.11902 10.364749 
L 294.755384 10.364749 
" style="fill: none; stroke: #ffffff; stroke-linejoin: miter; stroke-linecap: square"/>
   </g>
  </g>
  <g id="axes_2">
   <g id="patch_7">
    <path d="M 345.482657 232.124749 
L 599.11902 232.124749 
L 599.11902 10.364749 
L 345.482657 10.364749 
z
" style="fill: #f7fbfb"/>
   </g>
   <g id="matplotlib.axis_3">
    <g id="xtick_6">
     <g id="line2d_25">
      <path d="M 345.482657 232.124749 
L 345.482657 10.364749 
" clip-path="url(#p499fe9aa76)" style="fill: none; stroke: #eef2f3; stroke-width: 0.7; stroke-linecap: square"/>
     </g>
     <g id="line2d_26">
      <g>
       <use xlink:href="#mad092715ac" x="345.482657" y="232.124749" style="fill: #c8c8d3; stroke: #c8c8d3; stroke-width: 0.8"/>
      </g>
     </g>
     <g id="text_13">
      <!-- -6 -->
      <g style="fill: #6e6e80" transform="translate(341.330022 245.454248)scale(0.0833 -0.0833)">
       <use xlink:href="#DejaVuSans-2d"/>
       <use xlink:href="#DejaVuSans-36" x="36.083984"/>
      </g>
     </g>
    </g>
    <g id="xtick_7">
     <g id="line2d_27">
      <path d="M 408.891748 232.124749 
L 408.891748 10.364749 
" clip-path="url(#p499fe9aa76)" style="fill: none; stroke: #eef2f3; stroke-width: 0.7; stroke-linecap: square"/>
     </g>
     <g id="line2d_28">
      <g>
       <use xlink:href="#mad092715ac" x="408.891748" y="232.124749" style="fill: #c8c8d3; stroke: #c8c8d3; stroke-width: 0.8"/>
      </g>
     </g>
     <g id="text_14">
      <!-- -3 -->
      <g style="fill: #6e6e80" transform="translate(404.739112 245.454248)scale(0.0833 -0.0833)">
       <use xlink:href="#DejaVuSans-2d"/>
       <use xlink:href="#DejaVuSans-33" x="36.083984"/>
      </g>
     </g>
    </g>
    <g id="xtick_8">
     <g id="line2d_29">
      <path d="M 472.300838 232.124749 
L 472.300838 10.364749 
" clip-path="url(#p499fe9aa76)" style="fill: none; stroke: #eef2f3; stroke-width: 0.7; stroke-linecap: square"/>
     </g>
     <g id="line2d_30">
      <g>
       <use xlink:href="#mad092715ac" x="472.300838" y="232.124749" style="fill: #c8c8d3; stroke: #c8c8d3; stroke-width: 0.8"/>
      </g>
     </g>
     <g id="text_15">
      <!-- 0 -->
      <g style="fill: #6e6e80" transform="translate(469.650857 245.454248)scale(0.0833 -0.0833)">
       <use xlink:href="#DejaVuSans-30"/>
      </g>
     </g>
    </g>
    <g id="xtick_9">
     <g id="line2d_31">
      <path d="M 535.709929 232.124749 
L 535.709929 10.364749 
" clip-path="url(#p499fe9aa76)" style="fill: none; stroke: #eef2f3; stroke-width: 0.7; stroke-linecap: square"/>
     </g>
     <g id="line2d_32">
      <g>
       <use xlink:href="#mad092715ac" x="535.709929" y="232.124749" style="fill: #c8c8d3; stroke: #c8c8d3; stroke-width: 0.8"/>
      </g>
     </g>
     <g id="text_16">
      <!-- 3 -->
      <g style="fill: #6e6e80" transform="translate(533.059948 245.454248)scale(0.0833 -0.0833)">
       <use xlink:href="#DejaVuSans-33"/>
      </g>
     </g>
    </g>
    <g id="xtick_10">
     <g id="line2d_33">
      <path d="M 599.11902 232.124749 
L 599.11902 10.364749 
" clip-path="url(#p499fe9aa76)" style="fill: none; stroke: #eef2f3; stroke-width: 0.7; stroke-linecap: square"/>
     </g>
     <g id="line2d_34">
      <g>
       <use xlink:href="#mad092715ac" x="599.11902" y="232.124749" style="fill: #c8c8d3; stroke: #c8c8d3; stroke-width: 0.8"/>
      </g>
     </g>
     <g id="text_17">
      <!-- 6 -->
      <g style="fill: #6e6e80" transform="translate(596.469039 245.454248)scale(0.0833 -0.0833)">
       <use xlink:href="#DejaVuSans-36"/>
      </g>
     </g>
    </g>
    <g id="text_18">
     <!-- x -->
     <g style="fill: #6e6e80" transform="translate(468.749588 263.304752)scale(0.12 -0.12)">
      <use xlink:href="#DejaVuSans-78"/>
     </g>
    </g>
   </g>
   <g id="matplotlib.axis_4">
    <g id="ytick_6">
     <g id="line2d_35">
      <path d="M 345.482657 232.124749 
L 599.11902 232.124749 
" clip-path="url(#p499fe9aa76)" style="fill: none; stroke: #eef2f3; stroke-width: 0.7; stroke-linecap: square"/>
     </g>
     <g id="line2d_36">
      <g>
       <use xlink:href="#m3f85ce68c1" x="345.482657" y="232.124749" style="fill: #c8c8d3; stroke: #c8c8d3; stroke-width: 0.8"/>
      </g>
     </g>
     <g id="text_19">
      <!-- -4 -->
      <g style="fill: #6e6e80" transform="translate(330.177386 235.289498)scale(0.0833 -0.0833)">
       <use xlink:href="#DejaVuSans-2d"/>
       <use xlink:href="#DejaVuSans-34" x="36.083984"/>
      </g>
     </g>
    </g>
    <g id="ytick_7">
     <g id="line2d_37">
      <path d="M 345.482657 176.684749 
L 599.11902 176.684749 
" clip-path="url(#p499fe9aa76)" style="fill: none; stroke: #eef2f3; stroke-width: 0.7; stroke-linecap: square"/>
     </g>
     <g id="line2d_38">
      <g>
       <use xlink:href="#m3f85ce68c1" x="345.482657" y="176.684749" style="fill: #c8c8d3; stroke: #c8c8d3; stroke-width: 0.8"/>
      </g>
     </g>
     <g id="text_20">
      <!-- -2 -->
      <g style="fill: #6e6e80" transform="translate(330.177386 179.849498)scale(0.0833 -0.0833)">
       <use xlink:href="#DejaVuSans-2d"/>
       <use xlink:href="#DejaVuSans-32" x="36.083984"/>
      </g>
     </g>
    </g>
    <g id="ytick_8">
     <g id="line2d_39">
      <path d="M 345.482657 121.244749 
L 599.11902 121.244749 
" clip-path="url(#p499fe9aa76)" style="fill: none; stroke: #eef2f3; stroke-width: 0.7; stroke-linecap: square"/>
     </g>
     <g id="line2d_40">
      <g>
       <use xlink:href="#m3f85ce68c1" x="345.482657" y="121.244749" style="fill: #c8c8d3; stroke: #c8c8d3; stroke-width: 0.8"/>
      </g>
     </g>
     <g id="text_21">
      <!-- 0 -->
      <g style="fill: #6e6e80" transform="translate(333.182694 124.409498)scale(0.0833 -0.0833)">
       <use xlink:href="#DejaVuSans-30"/>
      </g>
     </g>
    </g>
    <g id="ytick_9">
     <g id="line2d_41">
      <path d="M 345.482657 65.804749 
L 599.11902 65.804749 
" clip-path="url(#p499fe9aa76)" style="fill: none; stroke: #eef2f3; stroke-width: 0.7; stroke-linecap: square"/>
     </g>
     <g id="line2d_42">
      <g>
       <use xlink:href="#m3f85ce68c1" x="345.482657" y="65.804749" style="fill: #c8c8d3; stroke: #c8c8d3; stroke-width: 0.8"/>
      </g>
     </g>
     <g id="text_22">
      <!-- 2 -->
      <g style="fill: #6e6e80" transform="translate(333.182694 68.969498)scale(0.0833 -0.0833)">
       <use xlink:href="#DejaVuSans-32"/>
      </g>
     </g>
    </g>
    <g id="ytick_10">
     <g id="line2d_43">
      <path d="M 345.482657 10.364749 
L 599.11902 10.364749 
" clip-path="url(#p499fe9aa76)" style="fill: none; stroke: #eef2f3; stroke-width: 0.7; stroke-linecap: square"/>
     </g>
     <g id="line2d_44">
      <g>
       <use xlink:href="#m3f85ce68c1" x="345.482657" y="10.364749" style="fill: #c8c8d3; stroke: #c8c8d3; stroke-width: 0.8"/>
      </g>
     </g>
     <g id="text_23">
      <!-- 4 -->
      <g style="fill: #6e6e80" transform="translate(333.182694 13.529498)scale(0.0833 -0.0833)">
       <use xlink:href="#DejaVuSans-34"/>
      </g>
     </g>
    </g>
    <g id="text_24">
     <!-- y -->
     <g style="fill: #6e6e80" transform="translate(320.681761 124.795999)rotate(-90)scale(0.12 -0.12)">
      <use xlink:href="#DejaVuSans-79"/>
     </g>
    </g>
   </g>
   <g id="PathCollection_2">
    <g clip-path="url(#p499fe9aa76)">
     <use xlink:href="#m347880bafe" x="576.448875" y="64.273076" style="fill: #6e6e80; stroke: #6e6e80; stroke-width: 0.5"/>
     <use xlink:href="#m347880bafe" x="565.854579" y="79.322378" style="fill: #6e6e80; stroke: #6e6e80; stroke-width: 0.5"/>
     <use xlink:href="#m347880bafe" x="494.970815" y="153.377855" style="fill: #6e6e80; stroke: #6e6e80; stroke-width: 0.5"/>
     <use xlink:href="#m347880bafe" x="567.321308" y="76.507522" style="fill: #6e6e80; stroke: #6e6e80; stroke-width: 0.5"/>
     <use xlink:href="#m347880bafe" x="541.639409" y="142.262606" style="fill: #6e6e80; stroke: #6e6e80; stroke-width: 0.5"/>
    </g>
   </g>
   <g id="line2d_45">
    <path d="M 366.61902 124.681976 
L 388.834419 171.751671 
L 389.25757 171.856459 
L 418.243371 171.767839 
L 419.512822 169.772911 
L 453.999582 89.99129 
L 476.63813 69.982096 
L 477.061281 70.53602 
L 495.679901 99.705936 
L 497.584076 105.078489 
L 509.220714 137.870248 
L 542.226447 179.933729 
L 542.649597 179.228288 
L 572.058554 120.650913 
L 577.982657 120.650913 
L 577.982657 120.650913 
" clip-path="url(#p499fe9aa76)" style="fill: none; stroke-dasharray: 1.5,2.475; stroke-dashoffset: 0; stroke: #ffd7b4; stroke-width: 1.5"/>
   </g>
   <g id="line2d_46">
    <path d="M 366.61902 124.404777 
L 388.834419 171.474471 
L 389.25757 171.579259 
L 417.820221 171.579259 
L 418.454946 170.758294 
L 419.301247 169.45233 
L 453.999582 90.74834 
L 476.849706 71.416846 
L 496.526201 102.057125 
L 508.585988 135.17571 
L 542.014872 175.727302 
L 570.154373 120.373714 
L 577.982657 120.373714 
L 577.982657 120.373714 
" clip-path="url(#p499fe9aa76)" style="fill: none; stroke-dasharray: 9.6,2.4,1.5,2.4; stroke-dashoffset: 0; stroke: #f4ac36; stroke-width: 1.5"/>
   </g>
   <g id="line2d_47">
    <path d="M 366.61902 121.972519 
L 388.834419 169.042214 
L 389.25757 169.147002 
L 415.069745 169.147002 
L 416.762346 166.958252 
L 418.454946 164.57511 
L 454.422734 96.416296 
L 476.63813 83.227502 
L 477.061281 83.69089 
L 500.54613 116.533172 
L 501.604005 118.884993 
L 504.142909 121.000882 
L 540.110696 150.785436 
L 559.575609 117.941456 
L 577.982657 117.941456 
L 577.982657 117.941456 
" clip-path="url(#p499fe9aa76)" style="fill: none; stroke-dasharray: 5.55,2.4; stroke-dashoffset: 0; stroke: #d6722c; stroke-width: 1.5"/>
   </g>
   <g id="line2d_48">
    <path d="M 366.61902 163.107332 
L 368.946351 167.481316 
L 371.062102 170.97296 
L 372.966273 173.690658 
L 374.658874 175.749895 
L 376.351484 177.459796 
L 377.832505 178.66071 
L 379.313536 179.579839 
L 380.794556 180.212667 
L 382.064007 180.524834 
L 383.333457 180.623222 
L 384.602918 180.507492 
L 385.872368 180.178049 
L 387.141819 179.636081 
L 388.622844 178.737843 
L 390.10387 177.55743 
L 391.584896 176.100652 
L 393.277496 174.10658 
L 394.970097 171.773695 
L 396.874278 168.762902 
L 398.990029 164.966737 
L 401.317354 160.28697 
L 403.856256 154.644571 
L 406.818312 147.459505 
L 410.203513 138.627331 
L 414.85817 125.804817 
L 423.532754 101.804869 
L 427.12953 92.584062 
L 430.091584 85.601059 
L 432.630487 80.167034 
L 434.957813 75.704136 
L 437.073567 72.124306 
L 438.977742 69.32201 
L 440.670346 67.183987 
L 442.362946 65.392469 
L 443.843972 64.118201 
L 445.325 63.124306 
L 446.806026 62.415653 
L 448.075476 62.037938 
L 449.344929 61.873731 
L 450.61438 61.923629 
L 451.88383 62.187446 
L 453.153282 62.664223 
L 454.634309 63.487303 
L 456.115334 64.593842 
L 457.596361 65.978416 
L 459.288963 67.892448 
L 460.981565 70.148441 
L 462.885742 73.077087 
L 465.001494 76.788208 
L 467.117246 80.944403 
L 469.656148 86.460472 
L 472.406626 92.999247 
L 475.580254 101.130013 
L 479.811758 112.64196 
L 491.23682 144.102297 
L 494.410448 152.04289 
L 497.160926 158.370202 
L 499.699827 163.65584 
L 502.027156 167.965776 
L 504.142909 171.394112 
L 506.047085 174.051193 
L 507.739685 176.054082 
L 509.432289 177.705675 
L 510.913314 178.854274 
L 512.39434 179.720134 
L 513.663793 180.234007 
L 514.933246 180.535151 
L 516.202696 180.622488 
L 517.472147 180.495709 
L 518.741597 180.155254 
L 520.011048 179.602368 
L 521.492074 178.691528 
L 522.973099 177.498762 
L 524.45413 176.0299 
L 526.146731 174.022457 
L 527.839331 171.676738 
L 529.743507 168.652255 
L 531.859263 164.841934 
L 534.186589 160.14806 
L 536.72549 154.492179 
L 539.687541 147.294159 
L 543.072747 138.451178 
L 547.727399 125.621217 
L 556.401983 101.630988 
L 559.998759 92.422959 
L 562.960821 85.453963 
L 565.499722 80.034276 
L 567.827042 75.586193 
L 569.942803 72.021074 
L 571.846974 69.232924 
L 573.539575 67.108083 
L 575.232176 65.330226 
L 576.713206 64.068244 
L 577.982657 63.2097 
L 577.982657 63.2097 
" clip-path="url(#p499fe9aa76)" style="fill: none; stroke: #6e6e80; stroke-width: 1.5; stroke-linecap: square"/>
   </g>
   <g id="line2d_49"/>
   <g id="patch_8">
    <path d="M 345.482657 232.124749 
L 345.482657 10.364749 
" style="fill: none; stroke: #c8c8d3; stroke-width: 0.7; stroke-linejoin: miter; stroke-linecap: square"/>
   </g>
   <g id="patch_9">
    <path d="M 599.11902 232.124749 
L 599.11902 10.364749 
" style="fill: none; stroke: #ffffff; stroke-linejoin: miter; stroke-linecap: square"/>
   </g>
   <g id="patch_10">
    <path d="M 345.482657 232.124749 
L 599.11902 232.124749 
" style="fill: none; stroke: #c8c8d3; stroke-width: 0.7; stroke-linejoin: miter; stroke-linecap: square"/>
   </g>
   <g id="patch_11">
    <path d="M 345.482657 10.364749 
L 599.11902 10.364749 
" style="fill: none; stroke: #ffffff; stroke-linejoin: miter; stroke-linecap: square"/>
   </g>
  </g>
  <g id="legend_1">
   <g id="patch_12">
    <path d="M 12.261208 315.560999 
L 609.976833 315.560999 
Q 611.976833 315.560999 611.976833 313.560999 
L 611.976833 285.204749 
Q 611.976833 283.204749 609.976833 283.204749 
L 12.261208 283.204749 
Q 10.261208 283.204749 10.261208 285.204749 
L 10.261208 313.560999 
Q 10.261208 315.560999 12.261208 315.560999 
L 12.261208 315.560999 
z
" style="fill: none; opacity: 0"/>
   </g>
   <g id="line2d_50">
    <path d="M 14.261208 291.303187 
L 24.261208 291.303187 
L 34.261208 291.303187 
" style="fill: none; stroke-dasharray: 1.5,2.475; stroke-dashoffset: 0; stroke: #89cff0; stroke-width: 1.5"/>
   </g>
   <g id="text_25">
    <!--  Pre-update (MAML) -->
    <g style="fill: #6e6e80" transform="translate(34.361208 294.803187)scale(0.1 -0.1)">
     <defs>
      <path id="DejaVuSans-20" transform="scale(0.015625)"/>
      <path id="DejaVuSans-50" d="M 1259 4147 
L 1259 2394 
L 2053 2394 
Q 2494 2394 2734 2622 
Q 2975 2850 2975 3272 
Q 2975 3691 2734 3919 
Q 2494 4147 2053 4147 
L 1259 4147 
z
M 628 4666 
L 2053 4666 
Q 2838 4666 3239 4311 
Q 3641 3956 3641 3272 
Q 3641 2581 3239 2228 
Q 2838 1875 2053 1875 
L 1259 1875 
L 1259 0 
L 628 0 
L 628 4666 
z
" transform="scale(0.015625)"/>
      <path id="DejaVuSans-72" d="M 2631 2963 
Q 2534 3019 2420 3045 
Q 2306 3072 2169 3072 
Q 1681 3072 1420 2755 
Q 1159 2438 1159 1844 
L 1159 0 
L 581 0 
L 581 3500 
L 1159 3500 
L 1159 2956 
Q 1341 3275 1631 3429 
Q 1922 3584 2338 3584 
Q 2397 3584 2469 3576 
Q 2541 3569 2628 3553 
L 2631 2963 
z
" transform="scale(0.015625)"/>
      <path id="DejaVuSans-65" d="M 3597 1894 
L 3597 1613 
L 953 1613 
Q 991 1019 1311 708 
Q 1631 397 2203 397 
Q 2534 397 2845 478 
Q 3156 559 3463 722 
L 3463 178 
Q 3153 47 2828 -22 
Q 2503 -91 2169 -91 
Q 1331 -91 842 396 
Q 353 884 353 1716 
Q 353 2575 817 3079 
Q 1281 3584 2069 3584 
Q 2775 3584 3186 3129 
Q 3597 2675 3597 1894 
z
M 3022 2063 
Q 3016 2534 2758 2815 
Q 2500 3097 2075 3097 
Q 1594 3097 1305 2825 
Q 1016 2553 972 2059 
L 3022 2063 
z
" transform="scale(0.015625)"/>
      <path id="DejaVuSans-75" d="M 544 1381 
L 544 3500 
L 1119 3500 
L 1119 1403 
Q 1119 906 1312 657 
Q 1506 409 1894 409 
Q 2359 409 2629 706 
Q 2900 1003 2900 1516 
L 2900 3500 
L 3475 3500 
L 3475 0 
L 2900 0 
L 2900 538 
Q 2691 219 2414 64 
Q 2138 -91 1772 -91 
Q 1169 -91 856 284 
Q 544 659 544 1381 
z
M 1991 3584 
L 1991 3584 
z
" transform="scale(0.015625)"/>
      <path id="DejaVuSans-70" d="M 1159 525 
L 1159 -1331 
L 581 -1331 
L 581 3500 
L 1159 3500 
L 1159 2969 
Q 1341 3281 1617 3432 
Q 1894 3584 2278 3584 
Q 2916 3584 3314 3078 
Q 3713 2572 3713 1747 
Q 3713 922 3314 415 
Q 2916 -91 2278 -91 
Q 1894 -91 1617 61 
Q 1341 213 1159 525 
z
M 3116 1747 
Q 3116 2381 2855 2742 
Q 2594 3103 2138 3103 
Q 1681 3103 1420 2742 
Q 1159 2381 1159 1747 
Q 1159 1113 1420 752 
Q 1681 391 2138 391 
Q 2594 391 2855 752 
Q 3116 1113 3116 1747 
z
" transform="scale(0.015625)"/>
      <path id="DejaVuSans-64" d="M 2906 2969 
L 2906 4863 
L 3481 4863 
L 3481 0 
L 2906 0 
L 2906 525 
Q 2725 213 2448 61 
Q 2172 -91 1784 -91 
Q 1150 -91 751 415 
Q 353 922 353 1747 
Q 353 2572 751 3078 
Q 1150 3584 1784 3584 
Q 2172 3584 2448 3432 
Q 2725 3281 2906 2969 
z
M 947 1747 
Q 947 1113 1208 752 
Q 1469 391 1925 391 
Q 2381 391 2643 752 
Q 2906 1113 2906 1747 
Q 2906 2381 2643 2742 
Q 2381 3103 1925 3103 
Q 1469 3103 1208 2742 
Q 947 2381 947 1747 
z
" transform="scale(0.015625)"/>
      <path id="DejaVuSans-61" d="M 2194 1759 
Q 1497 1759 1228 1600 
Q 959 1441 959 1056 
Q 959 750 1161 570 
Q 1363 391 1709 391 
Q 2188 391 2477 730 
Q 2766 1069 2766 1631 
L 2766 1759 
L 2194 1759 
z
M 3341 1997 
L 3341 0 
L 2766 0 
L 2766 531 
Q 2569 213 2275 61 
Q 1981 -91 1556 -91 
Q 1019 -91 701 211 
Q 384 513 384 1019 
Q 384 1609 779 1909 
Q 1175 2209 1959 2209 
L 2766 2209 
L 2766 2266 
Q 2766 2663 2505 2880 
Q 2244 3097 1772 3097 
Q 1472 3097 1187 3025 
Q 903 2953 641 2809 
L 641 3341 
Q 956 3463 1253 3523 
Q 1550 3584 1831 3584 
Q 2591 3584 2966 3190 
Q 3341 2797 3341 1997 
z
" transform="scale(0.015625)"/>
      <path id="DejaVuSans-74" d="M 1172 4494 
L 1172 3500 
L 2356 3500 
L 2356 3053 
L 1172 3053 
L 1172 1153 
Q 1172 725 1289 603 
Q 1406 481 1766 481 
L 2356 481 
L 2356 0 
L 1766 0 
Q 1100 0 847 248 
Q 594 497 594 1153 
L 594 3053 
L 172 3053 
L 172 3500 
L 594 3500 
L 594 4494 
L 1172 4494 
z
" transform="scale(0.015625)"/>
      <path id="DejaVuSans-28" d="M 1984 4856 
Q 1566 4138 1362 3434 
Q 1159 2731 1159 2009 
Q 1159 1288 1364 580 
Q 1569 -128 1984 -844 
L 1484 -844 
Q 1016 -109 783 600 
Q 550 1309 550 2009 
Q 550 2706 781 3412 
Q 1013 4119 1484 4856 
L 1984 4856 
z
" transform="scale(0.015625)"/>
      <path id="DejaVuSans-4d" d="M 628 4666 
L 1569 4666 
L 2759 1491 
L 3956 4666 
L 4897 4666 
L 4897 0 
L 4281 0 
L 4281 4097 
L 3078 897 
L 2444 897 
L 1241 4097 
L 1241 0 
L 628 0 
L 628 4666 
z
" transform="scale(0.015625)"/>
      <path id="DejaVuSans-41" d="M 2188 4044 
L 1331 1722 
L 3047 1722 
L 2188 4044 
z
M 1831 4666 
L 2547 4666 
L 4325 0 
L 3669 0 
L 3244 1197 
L 1141 1197 
L 716 0 
L 50 0 
L 1831 4666 
z
" transform="scale(0.015625)"/>
      <path id="DejaVuSans-4c" d="M 628 4666 
L 1259 4666 
L 1259 531 
L 3531 531 
L 3531 0 
L 628 0 
L 628 4666 
z
" transform="scale(0.015625)"/>
      <path id="DejaVuSans-29" d="M 513 4856 
L 1013 4856 
Q 1481 4119 1714 3412 
Q 1947 2706 1947 2009 
Q 1947 1309 1714 600 
Q 1481 -109 1013 -844 
L 513 -844 
Q 928 -128 1133 580 
Q 1338 1288 1338 2009 
Q 1338 2731 1133 3434 
Q 928 4138 513 4856 
z
" transform="scale(0.015625)"/>
     </defs>
     <use xlink:href="#DejaVuSans-20"/>
     <use xlink:href="#DejaVuSans-50" x="31.787109"/>
     <use xlink:href="#DejaVuSans-72" x="90.339844"/>
     <use xlink:href="#DejaVuSans-65" x="129.203125"/>
     <use xlink:href="#DejaVuSans-2d" x="190.726562"/>
     <use xlink:href="#DejaVuSans-75" x="226.810547"/>
     <use xlink:href="#DejaVuSans-70" x="290.189453"/>
     <use xlink:href="#DejaVuSans-64" x="353.666016"/>
     <use xlink:href="#DejaVuSans-61" x="417.142578"/>
     <use xlink:href="#DejaVuSans-74" x="478.421875"/>
     <use xlink:href="#DejaVuSans-65" x="517.630859"/>
     <use xlink:href="#DejaVuSans-20" x="579.154297"/>
     <use xlink:href="#DejaVuSans-28" x="610.941406"/>
     <use xlink:href="#DejaVuSans-4d" x="649.955078"/>
     <use xlink:href="#DejaVuSans-41" x="736.234375"/>
     <use xlink:href="#DejaVuSans-4d" x="804.642578"/>
     <use xlink:href="#DejaVuSans-4c" x="890.921875"/>
     <use xlink:href="#DejaVuSans-29" x="946.634766"/>
    </g>
   </g>
   <g id="line2d_51">
    <path d="M 14.261208 305.981312 
L 24.261208 305.981312 
L 34.261208 305.981312 
" style="fill: none; stroke-dasharray: 1.5,2.475; stroke-dashoffset: 0; stroke: #ffd7b4; stroke-width: 1.5"/>
   </g>
   <g id="text_26">
    <!--  Pre-update (baseline) -->
    <g style="fill: #6e6e80" transform="translate(34.361208 309.481312)scale(0.1 -0.1)">
     <defs>
      <path id="DejaVuSans-62" d="M 3116 1747 
Q 3116 2381 2855 2742 
Q 2594 3103 2138 3103 
Q 1681 3103 1420 2742 
Q 1159 2381 1159 1747 
Q 1159 1113 1420 752 
Q 1681 391 2138 391 
Q 2594 391 2855 752 
Q 3116 1113 3116 1747 
z
M 1159 2969 
Q 1341 3281 1617 3432 
Q 1894 3584 2278 3584 
Q 2916 3584 3314 3078 
Q 3713 2572 3713 1747 
Q 3713 922 3314 415 
Q 2916 -91 2278 -91 
Q 1894 -91 1617 61 
Q 1341 213 1159 525 
L 1159 0 
L 581 0 
L 581 4863 
L 1159 4863 
L 1159 2969 
z
" transform="scale(0.015625)"/>
      <path id="DejaVuSans-73" d="M 2834 3397 
L 2834 2853 
Q 2591 2978 2328 3040 
Q 2066 3103 1784 3103 
Q 1356 3103 1142 2972 
Q 928 2841 928 2578 
Q 928 2378 1081 2264 
Q 1234 2150 1697 2047 
L 1894 2003 
Q 2506 1872 2764 1633 
Q 3022 1394 3022 966 
Q 3022 478 2636 193 
Q 2250 -91 1575 -91 
Q 1294 -91 989 -36 
Q 684 19 347 128 
L 347 722 
Q 666 556 975 473 
Q 1284 391 1588 391 
Q 1994 391 2212 530 
Q 2431 669 2431 922 
Q 2431 1156 2273 1281 
Q 2116 1406 1581 1522 
L 1381 1569 
Q 847 1681 609 1914 
Q 372 2147 372 2553 
Q 372 3047 722 3315 
Q 1072 3584 1716 3584 
Q 2034 3584 2315 3537 
Q 2597 3491 2834 3397 
z
" transform="scale(0.015625)"/>
      <path id="DejaVuSans-6c" d="M 603 4863 
L 1178 4863 
L 1178 0 
L 603 0 
L 603 4863 
z
" transform="scale(0.015625)"/>
      <path id="DejaVuSans-69" d="M 603 3500 
L 1178 3500 
L 1178 0 
L 603 0 
L 603 3500 
z
M 603 4863 
L 1178 4863 
L 1178 4134 
L 603 4134 
L 603 4863 
z
" transform="scale(0.015625)"/>
      <path id="DejaVuSans-6e" d="M 3513 2113 
L 3513 0 
L 2938 0 
L 2938 2094 
Q 2938 2591 2744 2837 
Q 2550 3084 2163 3084 
Q 1697 3084 1428 2787 
Q 1159 2491 1159 1978 
L 1159 0 
L 581 0 
L 581 3500 
L 1159 3500 
L 1159 2956 
Q 1366 3272 1645 3428 
Q 1925 3584 2291 3584 
Q 2894 3584 3203 3211 
Q 3513 2838 3513 2113 
z
" transform="scale(0.015625)"/>
     </defs>
     <use xlink:href="#DejaVuSans-20"/>
     <use xlink:href="#DejaVuSans-50" x="31.787109"/>
     <use xlink:href="#DejaVuSans-72" x="90.339844"/>
     <use xlink:href="#DejaVuSans-65" x="129.203125"/>
     <use xlink:href="#DejaVuSans-2d" x="190.726562"/>
     <use xlink:href="#DejaVuSans-75" x="226.810547"/>
     <use xlink:href="#DejaVuSans-70" x="290.189453"/>
     <use xlink:href="#DejaVuSans-64" x="353.666016"/>
     <use xlink:href="#DejaVuSans-61" x="417.142578"/>
     <use xlink:href="#DejaVuSans-74" x="478.421875"/>
     <use xlink:href="#DejaVuSans-65" x="517.630859"/>
     <use xlink:href="#DejaVuSans-20" x="579.154297"/>
     <use xlink:href="#DejaVuSans-28" x="610.941406"/>
     <use xlink:href="#DejaVuSans-62" x="649.955078"/>
     <use xlink:href="#DejaVuSans-61" x="713.431641"/>
     <use xlink:href="#DejaVuSans-73" x="774.710938"/>
     <use xlink:href="#DejaVuSans-65" x="826.810547"/>
     <use xlink:href="#DejaVuSans-6c" x="888.333984"/>
     <use xlink:href="#DejaVuSans-69" x="916.117188"/>
     <use xlink:href="#DejaVuSans-6e" x="943.900391"/>
     <use xlink:href="#DejaVuSans-65" x="1007.279297"/>
     <use xlink:href="#DejaVuSans-29" x="1068.802734"/>
    </g>
   </g>
   <g id="line2d_52">
    <path d="M 165.14402 291.303187 
L 175.14402 291.303187 
L 185.14402 291.303187 
" style="fill: none; stroke-dasharray: 9.6,2.4,1.5,2.4; stroke-dashoffset: 0; stroke: #52c7f3; stroke-width: 1.5"/>
   </g>
   <g id="text_27">
    <!--  1 update step (MAML) -->
    <g style="fill: #6e6e80" transform="translate(185.24402 294.803187)scale(0.1 -0.1)">
     <defs>
      <path id="DejaVuSans-31" d="M 794 531 
L 1825 531 
L 1825 4091 
L 703 3866 
L 703 4441 
L 1819 4666 
L 2450 4666 
L 2450 531 
L 3481 531 
L 3481 0 
L 794 0 
L 794 531 
z
" transform="scale(0.015625)"/>
     </defs>
     <use xlink:href="#DejaVuSans-20"/>
     <use xlink:href="#DejaVuSans-31" x="31.787109"/>
     <use xlink:href="#DejaVuSans-20" x="95.410156"/>
     <use xlink:href="#DejaVuSans-75" x="127.197266"/>
     <use xlink:href="#DejaVuSans-70" x="190.576172"/>
     <use xlink:href="#DejaVuSans-64" x="254.052734"/>
     <use xlink:href="#DejaVuSans-61" x="317.529297"/>
     <use xlink:href="#DejaVuSans-74" x="378.808594"/>
     <use xlink:href="#DejaVuSans-65" x="418.017578"/>
     <use xlink:href="#DejaVuSans-20" x="479.541016"/>
     <use xlink:href="#DejaVuSans-73" x="511.328125"/>
     <use xlink:href="#DejaVuSans-74" x="563.427734"/>
     <use xlink:href="#DejaVuSans-65" x="602.636719"/>
     <use xlink:href="#DejaVuSans-70" x="664.160156"/>
     <use xlink:href="#DejaVuSans-20" x="727.636719"/>
     <use xlink:href="#DejaVuSans-28" x="759.423828"/>
     <use xlink:href="#DejaVuSans-4d" x="798.4375"/>
     <use xlink:href="#DejaVuSans-41" x="884.716797"/>
     <use xlink:href="#DejaVuSans-4d" x="953.125"/>
     <use xlink:href="#DejaVuSans-4c" x="1039.404297"/>
     <use xlink:href="#DejaVuSans-29" x="1095.117188"/>
    </g>
   </g>
   <g id="line2d_53">
    <path d="M 165.14402 305.981312 
L 175.14402 305.981312 
L 185.14402 305.981312 
" style="fill: none; stroke-dasharray: 9.6,2.4,1.5,2.4; stroke-dashoffset: 0; stroke: #f4ac36; stroke-width: 1.5"/>
   </g>
   <g id="text_28">
    <!--  1 update step (baseline) -->
    <g style="fill: #6e6e80" transform="translate(185.24402 309.481312)scale(0.1 -0.1)">
     <use xlink:href="#DejaVuSans-20"/>
     <use xlink:href="#DejaVuSans-31" x="31.787109"/>
     <use xlink:href="#DejaVuSans-20" x="95.410156"/>
     <use xlink:href="#DejaVuSans-75" x="127.197266"/>
     <use xlink:href="#DejaVuSans-70" x="190.576172"/>
     <use xlink:href="#DejaVuSans-64" x="254.052734"/>
     <use xlink:href="#DejaVuSans-61" x="317.529297"/>
     <use xlink:href="#DejaVuSans-74" x="378.808594"/>
     <use xlink:href="#DejaVuSans-65" x="418.017578"/>
     <use xlink:href="#DejaVuSans-20" x="479.541016"/>
     <use xlink:href="#DejaVuSans-73" x="511.328125"/>
     <use xlink:href="#DejaVuSans-74" x="563.427734"/>
     <use xlink:href="#DejaVuSans-65" x="602.636719"/>
     <use xlink:href="#DejaVuSans-70" x="664.160156"/>
     <use xlink:href="#DejaVuSans-20" x="727.636719"/>
     <use xlink:href="#DejaVuSans-28" x="759.423828"/>
     <use xlink:href="#DejaVuSans-62" x="798.4375"/>
     <use xlink:href="#DejaVuSans-61" x="861.914062"/>
     <use xlink:href="#DejaVuSans-73" x="923.193359"/>
     <use xlink:href="#DejaVuSans-65" x="975.292969"/>
     <use xlink:href="#DejaVuSans-6c" x="1036.816406"/>
     <use xlink:href="#DejaVuSans-69" x="1064.599609"/>
     <use xlink:href="#DejaVuSans-6e" x="1092.382812"/>
     <use xlink:href="#DejaVuSans-65" x="1155.761719"/>
     <use xlink:href="#DejaVuSans-29" x="1217.285156"/>
    </g>
   </g>
   <g id="line2d_54">
    <path d="M 330.87527 291.303187 
L 340.87527 291.303187 
L 350.87527 291.303187 
" style="fill: none; stroke-dasharray: 5.55,2.4; stroke-dashoffset: 0; stroke: #3668f0; stroke-width: 1.5"/>
   </g>
   <g id="text_29">
    <!--   10 update steps (MAML) -->
    <g style="fill: #6e6e80" transform="translate(350.97527 294.803187)scale(0.1 -0.1)">
     <use xlink:href="#DejaVuSans-20"/>
     <use xlink:href="#DejaVuSans-20" x="31.787109"/>
     <use xlink:href="#DejaVuSans-31" x="63.574219"/>
     <use xlink:href="#DejaVuSans-30" x="127.197266"/>
     <use xlink:href="#DejaVuSans-20" x="190.820312"/>
     <use xlink:href="#DejaVuSans-75" x="222.607422"/>
     <use xlink:href="#DejaVuSans-70" x="285.986328"/>
     <use xlink:href="#DejaVuSans-64" x="349.462891"/>
     <use xlink:href="#DejaVuSans-61" x="412.939453"/>
     <use xlink:href="#DejaVuSans-74" x="474.21875"/>
     <use xlink:href="#DejaVuSans-65" x="513.427734"/>
     <use xlink:href="#DejaVuSans-20" x="574.951172"/>
     <use xlink:href="#DejaVuSans-73" x="606.738281"/>
     <use xlink:href="#DejaVuSans-74" x="658.837891"/>
     <use xlink:href="#DejaVuSans-65" x="698.046875"/>
     <use xlink:href="#DejaVuSans-70" x="759.570312"/>
     <use xlink:href="#DejaVuSans-73" x="823.046875"/>
     <use xlink:href="#DejaVuSans-20" x="875.146484"/>
     <use xlink:href="#DejaVuSans-28" x="906.933594"/>
     <use xlink:href="#DejaVuSans-4d" x="945.947266"/>
     <use xlink:href="#DejaVuSans-41" x="1032.226562"/>
     <use xlink:href="#DejaVuSans-4d" x="1100.634766"/>
     <use xlink:href="#DejaVuSans-4c" x="1186.914062"/>
     <use xlink:href="#DejaVuSans-29" x="1242.626953"/>
    </g>
   </g>
   <g id="line2d_55">
    <path d="M 330.87527 305.981312 
L 340.87527 305.981312 
L 350.87527 305.981312 
" style="fill: none; stroke-dasharray: 5.55,2.4; stroke-dashoffset: 0; stroke: #d6722c; stroke-width: 1.5"/>
   </g>
   <g id="text_30">
    <!--   10 update steps (baseline) -->
    <g style="fill: #6e6e80" transform="translate(350.97527 309.481312)scale(0.1 -0.1)">
     <use xlink:href="#DejaVuSans-20"/>
     <use xlink:href="#DejaVuSans-20" x="31.787109"/>
     <use xlink:href="#DejaVuSans-31" x="63.574219"/>
     <use xlink:href="#DejaVuSans-30" x="127.197266"/>
     <use xlink:href="#DejaVuSans-20" x="190.820312"/>
     <use xlink:href="#DejaVuSans-75" x="222.607422"/>
     <use xlink:href="#DejaVuSans-70" x="285.986328"/>
     <use xlink:href="#DejaVuSans-64" x="349.462891"/>
     <use xlink:href="#DejaVuSans-61" x="412.939453"/>
     <use xlink:href="#DejaVuSans-74" x="474.21875"/>
     <use xlink:href="#DejaVuSans-65" x="513.427734"/>
     <use xlink:href="#DejaVuSans-20" x="574.951172"/>
     <use xlink:href="#DejaVuSans-73" x="606.738281"/>
     <use xlink:href="#DejaVuSans-74" x="658.837891"/>
     <use xlink:href="#DejaVuSans-65" x="698.046875"/>
     <use xlink:href="#DejaVuSans-70" x="759.570312"/>
     <use xlink:href="#DejaVuSans-73" x="823.046875"/>
     <use xlink:href="#DejaVuSans-20" x="875.146484"/>
     <use xlink:href="#DejaVuSans-28" x="906.933594"/>
     <use xlink:href="#DejaVuSans-62" x="945.947266"/>
     <use xlink:href="#DejaVuSans-61" x="1009.423828"/>
     <use xlink:href="#DejaVuSans-73" x="1070.703125"/>
     <use xlink:href="#DejaVuSans-65" x="1122.802734"/>
     <use xlink:href="#DejaVuSans-6c" x="1184.326172"/>
     <use xlink:href="#DejaVuSans-69" x="1212.109375"/>
     <use xlink:href="#DejaVuSans-6e" x="1239.892578"/>
     <use xlink:href="#DejaVuSans-65" x="1303.271484"/>
     <use xlink:href="#DejaVuSans-29" x="1364.794922"/>
    </g>
   </g>
   <g id="line2d_56">
    <path d="M 511.35652 291.303187 
L 521.35652 291.303187 
L 531.35652 291.303187 
" style="fill: none"/>
    <defs>
     <path id="mb4a03e7ba2" d="M 0 3 
C 0.795609 3 1.55874 2.683901 2.12132 2.12132 
C 2.683901 1.55874 3 0.795609 3 0 
C 3 -0.795609 2.683901 -1.55874 2.12132 -2.12132 
C 1.55874 -2.683901 0.795609 -3 0 -3 
C -0.795609 -3 -1.55874 -2.683901 -2.12132 -2.12132 
C -2.683901 -1.55874 -3 -0.795609 -3 0 
C -3 0.795609 -2.683901 1.55874 -2.12132 2.12132 
C -1.55874 2.683901 -0.795609 3 0 3 
z
" style="stroke: #6e6e80; stroke-opacity: 0.95"/>
    </defs>
    <g>
     <use xlink:href="#mb4a03e7ba2" x="521.35652" y="291.303187" style="fill: #6e6e80; fill-opacity: 0.95; stroke: #6e6e80; stroke-opacity: 0.95"/>
    </g>
   </g>
   <g id="text_31">
    <!--  Training points -->
    <g style="fill: #6e6e80" transform="translate(531.45652 294.803187)scale(0.1 -0.1)">
     <defs>
      <path id="DejaVuSans-54" d="M -19 4666 
L 3928 4666 
L 3928 4134 
L 2272 4134 
L 2272 0 
L 1638 0 
L 1638 4134 
L -19 4134 
L -19 4666 
z
" transform="scale(0.015625)"/>
      <path id="DejaVuSans-67" d="M 2906 1791 
Q 2906 2416 2648 2759 
Q 2391 3103 1925 3103 
Q 1463 3103 1205 2759 
Q 947 2416 947 1791 
Q 947 1169 1205 825 
Q 1463 481 1925 481 
Q 2391 481 2648 825 
Q 2906 1169 2906 1791 
z
M 3481 434 
Q 3481 -459 3084 -895 
Q 2688 -1331 1869 -1331 
Q 1566 -1331 1297 -1286 
Q 1028 -1241 775 -1147 
L 775 -588 
Q 1028 -725 1275 -790 
Q 1522 -856 1778 -856 
Q 2344 -856 2625 -561 
Q 2906 -266 2906 331 
L 2906 616 
Q 2728 306 2450 153 
Q 2172 0 1784 0 
Q 1141 0 747 490 
Q 353 981 353 1791 
Q 353 2603 747 3093 
Q 1141 3584 1784 3584 
Q 2172 3584 2450 3431 
Q 2728 3278 2906 2969 
L 2906 3500 
L 3481 3500 
L 3481 434 
z
" transform="scale(0.015625)"/>
      <path id="DejaVuSans-6f" d="M 1959 3097 
Q 1497 3097 1228 2736 
Q 959 2375 959 1747 
Q 959 1119 1226 758 
Q 1494 397 1959 397 
Q 2419 397 2687 759 
Q 2956 1122 2956 1747 
Q 2956 2369 2687 2733 
Q 2419 3097 1959 3097 
z
M 1959 3584 
Q 2709 3584 3137 3096 
Q 3566 2609 3566 1747 
Q 3566 888 3137 398 
Q 2709 -91 1959 -91 
Q 1206 -91 779 398 
Q 353 888 353 1747 
Q 353 2609 779 3096 
Q 1206 3584 1959 3584 
z
" transform="scale(0.015625)"/>
     </defs>
     <use xlink:href="#DejaVuSans-20"/>
     <use xlink:href="#DejaVuSans-54" x="31.787109"/>
     <use xlink:href="#DejaVuSans-72" x="78.121094"/>
     <use xlink:href="#DejaVuSans-61" x="119.234375"/>
     <use xlink:href="#DejaVuSans-69" x="180.513672"/>
     <use xlink:href="#DejaVuSans-6e" x="208.296875"/>
     <use xlink:href="#DejaVuSans-69" x="271.675781"/>
     <use xlink:href="#DejaVuSans-6e" x="299.458984"/>
     <use xlink:href="#DejaVuSans-67" x="362.837891"/>
     <use xlink:href="#DejaVuSans-20" x="426.314453"/>
     <use xlink:href="#DejaVuSans-70" x="458.101562"/>
     <use xlink:href="#DejaVuSans-6f" x="521.578125"/>
     <use xlink:href="#DejaVuSans-69" x="582.759766"/>
     <use xlink:href="#DejaVuSans-6e" x="610.542969"/>
     <use xlink:href="#DejaVuSans-74" x="673.921875"/>
     <use xlink:href="#DejaVuSans-73" x="713.130859"/>
    </g>
   </g>
   <g id="line2d_57">
    <path d="M 511.35652 305.981312 
L 521.35652 305.981312 
L 531.35652 305.981312 
" style="fill: none; stroke: #6e6e80; stroke-opacity: 0.95; stroke-width: 1.5; stroke-linecap: square"/>
   </g>
   <g id="text_32">
    <!--  Ground truth -->
    <g style="fill: #6e6e80" transform="translate(531.45652 309.481312)scale(0.1 -0.1)">
     <defs>
      <path id="DejaVuSans-47" d="M 3809 666 
L 3809 1919 
L 2778 1919 
L 2778 2438 
L 4434 2438 
L 4434 434 
Q 4069 175 3628 42 
Q 3188 -91 2688 -91 
Q 1594 -91 976 548 
Q 359 1188 359 2328 
Q 359 3472 976 4111 
Q 1594 4750 2688 4750 
Q 3144 4750 3555 4637 
Q 3966 4525 4313 4306 
L 4313 3634 
Q 3963 3931 3569 4081 
Q 3175 4231 2741 4231 
Q 1884 4231 1454 3753 
Q 1025 3275 1025 2328 
Q 1025 1384 1454 906 
Q 1884 428 2741 428 
Q 3075 428 3337 486 
Q 3600 544 3809 666 
z
" transform="scale(0.015625)"/>
      <path id="DejaVuSans-68" d="M 3513 2113 
L 3513 0 
L 2938 0 
L 2938 2094 
Q 2938 2591 2744 2837 
Q 2550 3084 2163 3084 
Q 1697 3084 1428 2787 
Q 1159 2491 1159 1978 
L 1159 0 
L 581 0 
L 581 4863 
L 1159 4863 
L 1159 2956 
Q 1366 3272 1645 3428 
Q 1925 3584 2291 3584 
Q 2894 3584 3203 3211 
Q 3513 2838 3513 2113 
z
" transform="scale(0.015625)"/>
     </defs>
     <use xlink:href="#DejaVuSans-20"/>
     <use xlink:href="#DejaVuSans-47" x="31.787109"/>
     <use xlink:href="#DejaVuSans-72" x="109.277344"/>
     <use xlink:href="#DejaVuSans-6f" x="148.140625"/>
     <use xlink:href="#DejaVuSans-75" x="209.322266"/>
     <use xlink:href="#DejaVuSans-6e" x="272.701172"/>
     <use xlink:href="#DejaVuSans-64" x="336.080078"/>
     <use xlink:href="#DejaVuSans-20" x="399.556641"/>
     <use xlink:href="#DejaVuSans-74" x="431.34375"/>
     <use xlink:href="#DejaVuSans-72" x="470.552734"/>
     <use xlink:href="#DejaVuSans-75" x="511.666016"/>
     <use xlink:href="#DejaVuSans-74" x="575.044922"/>
     <use xlink:href="#DejaVuSans-68" x="614.253906"/>
    </g>
   </g>
  </g>
 </g>
 <defs>
  <clipPath id="p1742c62fbf">
   <rect x="41.11902" y="10.364749" width="253.636364" height="221.76"/>
  </clipPath>
  <clipPath id="p499fe9aa76">
   <rect x="345.482657" y="10.364749" width="253.636364" height="221.76"/>
  </clipPath>
 </defs>
</svg>
